<svg xmlns="http://www.w3.org/2000/svg" xmlns:xlink="http://www.w3.org/1999/xlink" version="1.1" width="256" height="256" viewBox="0 0 256 256" xml:space="preserve">

<defs>
</defs>
<g style="stroke: none; stroke-width: 0; stroke-dasharray: none; stroke-linecap: butt; stroke-linejoin: miter; stroke-miterlimit: 10; fill: none; fill-rule: nonzero; opacity: 1;" transform="translate(1.4065934065934016 1.4065934065934016) scale(2.81 2.81)" >
	<path d="M 45 19.907 c -1.657 0 -3 1.343 -3 3 v 21.881 L 30.669 61.805 c -0.918 1.38 -0.545 3.242 0.834 4.16 c 0.511 0.341 1.088 0.503 1.66 0.503 c 0.97 0 1.922 -0.47 2.5 -1.337 l 11.834 -17.772 C 47.825 46.865 48 46.287 48 45.695 V 22.907 C 48 21.251 46.657 19.907 45 19.907 z" style="stroke: none; stroke-width: 1; stroke-dasharray: none; stroke-linecap: butt; stroke-linejoin: miter; stroke-miterlimit: 10; fill: rgb(0,0,0); fill-rule: nonzero; opacity: 1;" transform=" matrix(1 0 0 1 0 0) " stroke-linecap="round" />
	<path d="M 83.996 45.695 C 83.996 24.193 66.503 6.699 45 6.699 c -21.502 0 -38.996 17.494 -38.996 38.996 c 0 12.25 5.682 23.192 14.544 30.346 l -6.351 9.261 c -0.937 1.367 -0.589 3.234 0.777 4.171 C 15.492 89.83 16.083 90 16.668 90 c 0.956 0 1.895 -0.455 2.477 -1.303 l 6.349 -9.257 c 5.743 3.332 12.403 5.251 19.507 5.251 c 7.104 0 13.764 -1.919 19.507 -5.251 l 6.349 9.257 C 71.437 89.545 72.377 90 73.333 90 c 0.585 0 1.176 -0.17 1.694 -0.526 c 1.366 -0.937 1.714 -2.805 0.776 -4.171 l -6.352 -9.26 C 78.313 68.888 83.996 57.945 83.996 45.695 z M 12.004 45.695 c 0 -18.194 14.802 -32.996 32.996 -32.996 s 32.996 14.802 32.996 32.996 S 63.194 78.691 45 78.691 S 12.004 63.89 12.004 45.695 z" style="stroke: none; stroke-width: 1; stroke-dasharray: none; stroke-linecap: butt; stroke-linejoin: miter; stroke-miterlimit: 10; fill: rgb(0,0,0); fill-rule: nonzero; opacity: 1;" transform=" matrix(1 0 0 1 0 0) " stroke-linecap="round" />
	<path d="M 6.687 22.471 c 4.293 -7.32 10.6 -13.117 18.24 -16.764 c 1.495 -0.714 2.128 -2.504 1.415 -4 c -0.714 -1.495 -2.506 -2.128 -4 -1.415 C 13.616 4.458 6.413 11.078 1.511 19.436 c -0.838 1.429 -0.359 3.267 1.07 4.105 c 0.477 0.28 0.999 0.413 1.515 0.413 C 5.126 23.954 6.128 23.424 6.687 22.471 z" style="stroke: none; stroke-width: 1; stroke-dasharray: none; stroke-linecap: butt; stroke-linejoin: miter; stroke-miterlimit: 10; fill: rgb(0,0,0); fill-rule: nonzero; opacity: 1;" transform=" matrix(1 0 0 1 0 0) " stroke-linecap="round" />
	<path d="M 88.489 19.436 C 83.587 11.078 76.384 4.458 67.658 0.293 c -1.494 -0.71 -3.284 -0.08 -3.999 1.415 c -0.714 1.496 -0.08 3.286 1.415 4 c 7.639 3.646 13.946 9.443 18.239 16.764 c 0.559 0.953 1.561 1.483 2.591 1.483 c 0.516 0 1.038 -0.133 1.515 -0.413 C 88.848 22.703 89.327 20.865 88.489 19.436 z" style="stroke: none; stroke-width: 1; stroke-dasharray: none; stroke-linecap: butt; stroke-linejoin: miter; stroke-miterlimit: 10; fill: rgb(0,0,0); fill-rule: nonzero; opacity: 1;" transform=" matrix(1 0 0 1 0 0) " stroke-linecap="round" />
</g>
</svg>